<?xml version="1.0" encoding="utf-8"?>
<!-- Generator: Adobe Illustrator 16.0.0, SVG Export Plug-In . SVG Version: 6.00 Build 0)  -->
<!DOCTYPE svg PUBLIC "-//W3C//DTD SVG 1.1//EN" "http://www.w3.org/Graphics/SVG/1.1/DTD/svg11.dtd">
<svg version="1.1" id="Layer_1" xmlns="http://www.w3.org/2000/svg" xmlns:xlink="http://www.w3.org/1999/xlink" x="0px" y="0px"
	 width="346px" height="128px" viewBox="0 0 346 128" enable-background="new 0 0 346 128" xml:space="preserve">
<rect x="3.535" y="53.299" fill="none" width="376.465" height="82.363"/>
<text transform="matrix(1 0 0 1 3.5347 108.7432)" fill="none" stroke="#000000" stroke-width="2" stroke-miterlimit="10" font-family="'National-Bold'" font-size="83">Assembly</text>
<g>
	<g>
		<path fill="#231F20" d="M111.603,35.181c-1.559-0.171-2.967,0.948-3.132,2.515c-0.169,1.556,0.953,2.96,2.51,3.123
			c0.112,0.015,0.212,0.019,0.315,0.019c1.438,0,2.659-1.078,2.816-2.526C114.279,36.744,113.16,35.346,111.603,35.181z"/>
		<path fill="#231F20" d="M109.423,22.583c-0.205-1.551-1.631-2.643-3.188-2.439c-1.546,0.207-2.642,1.635-2.427,3.187
			c0.185,1.432,1.399,2.465,2.808,2.465c0.121,0,0.24-0.004,0.379-0.024C108.543,25.564,109.636,24.142,109.423,22.583z"/>
		<path fill="#231F20" d="M108.415,14.884c0.008,1.566,1.278,2.832,2.836,2.832c0.008,0,0.008,0,0.018,0
			c1.565-0.005,2.825-1.284,2.817-2.851c0-1.566-1.28-2.831-2.845-2.825C109.673,12.042,108.403,13.318,108.415,14.884z"/>
		<path fill="#231F20" d="M58.851,55.65c-1.575,0-2.845,1.271-2.845,2.839c0,1.567,1.27,2.836,2.845,2.836
			c1.566,0,2.836-1.27,2.836-2.836C61.688,56.922,60.418,55.65,58.851,55.65z"/>
		<path fill="#231F20" d="M60.028,47.072c-1.539-0.262-3.003,0.785-3.263,2.323c-0.258,1.548,0.788,3.012,2.327,3.271
			c0.159,0.028,0.315,0.047,0.472,0.047c1.364,0,2.568-0.988,2.798-2.373C62.623,48.793,61.576,47.329,60.028,47.072z"/>
		<circle fill="#231F20" cx="89.915" cy="58.489" r="2.839"/>
		<path fill="#231F20" d="M92.863,47.492c-1.426-0.646-3.105,0-3.752,1.426c-0.639,1.43,0.009,3.107,1.435,3.749
			c0.379,0.172,0.77,0.254,1.159,0.254c1.084,0,2.123-0.629,2.595-1.686C94.939,49.813,94.29,48.13,92.863,47.492z"/>
		<path fill="#231F20" d="M94.883,41.022c-1.168,1.048-1.27,2.842-0.223,4.01c0.566,0.621,1.335,0.94,2.114,0.94
			c0.677,0,1.352-0.241,1.889-0.72c1.167-1.048,1.271-2.845,0.224-4.013C97.838,40.076,96.051,39.98,94.883,41.022z"/>
		<path fill="#231F20" d="M103.066,36.153c-1.493,0.477-2.317,2.076-1.835,3.57c0.379,1.201,1.501,1.971,2.697,1.971
			c0.286,0,0.583-0.041,0.87-0.134c1.492-0.483,2.317-2.075,1.835-3.569C106.153,36.499,104.558,35.676,103.066,36.153z"/>
		<path fill="#231F20" d="M82.148,55.65c-1.574,0-2.834,1.271-2.834,2.839c0,1.567,1.26,2.836,2.834,2.836
			c1.567,0,2.837-1.27,2.837-2.836C84.985,56.922,83.715,55.65,82.148,55.65z"/>
		<path fill="#231F20" d="M84.299,47.254c-1.491-0.472-3.085,0.361-3.558,1.857c-0.462,1.5,0.362,3.086,1.853,3.556
			c0.288,0.087,0.576,0.132,0.854,0.132c1.214,0,2.335-0.776,2.714-1.985l0,0C86.626,49.322,85.801,47.721,84.299,47.254z"/>
		<path fill="#231F20" d="M85.643,44.549c0.493,0.349,1.066,0.51,1.623,0.51c0.899,0,1.77-0.417,2.328-1.204
			c0.898-1.282,0.583-3.054-0.696-3.953c-1.28-0.903-3.058-0.587-3.958,0.696C84.05,41.879,84.354,43.65,85.643,44.549z"/>
		<path fill="#231F20" d="M93.233,38.826c0.603,0,1.214-0.189,1.732-0.594c1.234-0.956,1.475-2.737,0.511-3.976
			c-0.956-1.243-2.734-1.474-3.977-0.515c-1.242,0.95-1.474,2.735-0.519,3.975C91.537,38.441,92.381,38.826,93.233,38.826z"/>
		<path fill="#231F20" d="M101.389,34.363c0.315,0,0.648-0.055,0.973-0.168c1.472-0.544,2.224-2.17,1.686-3.638
			c-0.538-1.478-2.168-2.233-3.634-1.69c-1.483,0.532-2.234,2.163-1.696,3.636C99.136,33.649,100.221,34.363,101.389,34.363z"/>
		<path fill="#231F20" d="M74.374,55.65c-1.565,0-2.826,1.271-2.826,2.839c0,1.567,1.261,2.836,2.826,2.836
			c1.577,0,2.847-1.27,2.847-2.836C77.221,56.922,75.95,55.65,74.374,55.65z"/>
		<path fill="#231F20" d="M76.079,47.151c-1.529-0.369-3.058,0.569-3.428,2.092c-0.37,1.519,0.565,3.057,2.084,3.425
			c0.222,0.054,0.446,0.083,0.676,0.083c1.27,0,2.438-0.872,2.752-2.167C78.535,49.057,77.6,47.526,76.079,47.151z"/>
		<path fill="#231F20" d="M80.963,43.131c0.723-1.39,0.185-3.105-1.206-3.825c-1.388-0.728-3.103-0.188-3.835,1.203
			c-0.713,1.388-0.175,3.104,1.215,3.83c0.416,0.218,0.862,0.321,1.306,0.321C79.463,44.66,80.453,44.103,80.963,43.131z"/>
		<path fill="#231F20" d="M85.459,36.561c1.028-1.188,0.916-2.976-0.27-4.009c-1.177-1.028-2.975-0.912-4.003,0.265
			c-1.03,1.178-0.909,2.975,0.268,4.009c0.537,0.472,1.206,0.699,1.863,0.699C84.115,37.524,84.894,37.199,85.459,36.561z"/>
		<path fill="#231F20" d="M92.065,27.277c-0.898-1.281-2.668-1.592-3.947-0.689c-1.289,0.905-1.594,2.669-0.696,3.954
			c0.557,0.788,1.436,1.204,2.326,1.204c0.565,0,1.131-0.161,1.631-0.514C92.659,30.328,92.974,28.562,92.065,27.277z"/>
		<path fill="#231F20" d="M98.386,27.46c1.465-0.566,2.179-2.214,1.613-3.68c-0.574-1.458-2.224-2.172-3.68-1.607
			c-1.465,0.574-2.187,2.218-1.612,3.678c0.445,1.121,1.521,1.808,2.641,1.808C97.7,27.659,98.053,27.599,98.386,27.46z"/>
		<path fill="#231F20" d="M118.673,23.14c0.166-1.562-0.963-2.959-2.531-3.119c-1.557-0.166-2.947,0.967-3.115,2.528
			c-0.167,1.552,0.964,2.95,2.521,3.119c0.111,0.009,0.205,0.012,0.306,0.012C117.282,25.678,118.517,24.596,118.673,23.14z"/>
		<path fill="#231F20" d="M66.312,55.65c-1.566,0-2.835,1.271-2.835,2.839c0,1.567,1.269,2.836,2.835,2.836
			c1.576,0,2.846-1.27,2.846-2.836C69.157,56.922,67.887,55.65,66.312,55.65z"/>
		<path fill="#231F20" d="M67.701,47.097c-1.538-0.298-3.03,0.699-3.336,2.238c0-0.005,0-0.005,0-0.005
			c-0.298,1.543,0.695,3.037,2.233,3.336c0.186,0.037,0.379,0.055,0.556,0.055c1.325,0,2.521-0.935,2.78-2.289
			C70.241,48.895,69.241,47.402,67.701,47.097z"/>
		<path fill="#231F20" d="M70.732,38.987c-1.446-0.601-3.105,0.083-3.707,1.534c0.01,0,0.01,0,0.01,0
			c-0.602,1.452,0.083,3.104,1.529,3.706c0.36,0.148,0.732,0.218,1.083,0.218c1.122,0,2.177-0.658,2.633-1.754
			C72.872,41.245,72.187,39.581,70.732,38.987z"/>
		<path fill="#231F20" d="M75.301,31.62c-1.298-0.874-3.068-0.522-3.93,0.783l0,0c-0.881,1.303-0.528,3.068,0.78,3.934
			c0.481,0.321,1.039,0.483,1.574,0.483c0.917,0,1.816-0.449,2.363-1.27C76.951,34.252,76.607,32.486,75.301,31.62z"/>
		<path fill="#231F20" d="M77.2,29.298c0.558,0.553,1.28,0.824,2.003,0.824c0.732,0,1.456-0.271,2.012-0.837
			c1.111-1.103,1.102-2.905-0.009-4.009c-1.103-1.103-2.91-1.103-4.004,0.009C76.088,26.398,76.088,28.191,77.2,29.298z"/>
		<path fill="#231F20" d="M83.521,23.368c0.547,0.811,1.445,1.251,2.354,1.251c0.546,0.006,1.102-0.152,1.584-0.478
			c1.297-0.876,1.649-2.646,0.77-3.943c-0.872-1.302-2.641-1.645-3.939-0.769C82.993,20.3,82.65,22.071,83.521,23.368z"/>
		<path fill="#231F20" d="M90.871,18.777c0.454,1.083,1.5,1.745,2.613,1.745c0.371,0,0.732-0.067,1.103-0.227
			c1.437-0.601,2.121-2.26,1.518-3.708c-0.601-1.449-2.269-2.131-3.716-1.528C90.943,15.667,90.268,17.33,90.871,18.777z"/>
		<path fill="#231F20" d="M98.97,15.713c0.278,1.338,1.454,2.275,2.781,2.275c0.186,0,0.371-0.018,0.565-0.061
			c1.528-0.306,2.529-1.802,2.224-3.341c-0.315-1.534-1.808-2.53-3.345-2.226C99.656,12.679,98.664,14.17,98.97,15.713z"/>
		<path fill="#231F20" d="M60.779,44.168c0.306,0.113,0.623,0.16,0.937,0.16c1.167,0,2.262-0.733,2.669-1.905
			c0.519-1.478-0.26-3.099-1.743-3.611c-1.483-0.518-3.095,0.265-3.614,1.744C58.508,42.038,59.296,43.655,60.779,44.168z"/>
		<path fill="#231F20" d="M63.865,36.074c0.427,0.235,0.899,0.349,1.361,0.349c1.002,0,1.974-0.532,2.493-1.468
			c0.76-1.375,0.251-3.099-1.121-3.858c-1.372-0.756-3.094-0.25-3.855,1.117C61.993,33.59,62.484,35.315,63.865,36.074z"/>
		<path fill="#231F20" d="M68.268,28.605c0.518,0.411,1.14,0.614,1.761,0.614c0.833,0,1.658-0.37,2.223-1.074
			c0.975-1.224,0.77-3.017-0.465-3.985c-1.222-0.974-3.01-0.771-3.985,0.458C66.831,25.848,67.035,27.63,68.268,28.605z"/>
		<path fill="#231F20" d="M75.95,22.918c0.676,0,1.362-0.24,1.899-0.727c1.167-1.052,1.26-2.845,0.213-4.014
			c-1.056-1.162-2.844-1.255-4.014-0.207c-1.158,1.052-1.26,2.846-0.204,4.012C74.402,22.598,75.181,22.918,75.95,22.918z"/>
		<path fill="#231F20" d="M82.844,17.682c0.518,0,1.047-0.143,1.51-0.445c1.334-0.839,1.715-2.595,0.881-3.915
			c-0.842-1.322-2.594-1.715-3.919-0.875c-1.325,0.847-1.715,2.598-0.872,3.919C80.982,17.22,81.908,17.682,82.844,17.682z"/>
		<path fill="#231F20" d="M90.5,13.669c0.37,0,0.741-0.075,1.102-0.222c1.446-0.603,2.122-2.271,1.512-3.718
			c-0.604-1.439-2.271-2.12-3.717-1.509c-1.446,0.603-2.123,2.268-1.512,3.716C88.34,13.02,89.388,13.669,90.5,13.669z"/>
		<path fill="#231F20" d="M98.719,11.001c0.212,0,0.437-0.025,0.649-0.075c1.528-0.358,2.474-1.882,2.122-3.407
			c-0.352-1.532-1.882-2.478-3.409-2.121c-1.53,0.353-2.475,1.885-2.114,3.41C96.264,10.12,97.432,11.001,98.719,11.001z"/>
		<path fill="#231F20" d="M107.283,9.745c0.065,0,0.121,0,0.177,0c1.566-0.102,2.751-1.45,2.66-3.012
			c-0.102-1.566-1.446-2.751-3.013-2.655c-1.565,0.093-2.751,1.441-2.649,3.006C104.548,8.585,105.801,9.745,107.283,9.745z"/>
		<path fill="#231F20" d="M119.329,36.448c-1.492-0.472-3.094,0.349-3.567,1.84c-0.48,1.497,0.344,3.087,1.836,3.573
			c0.286,0.087,0.583,0.131,0.873,0.131c1.194,0,2.307-0.767,2.695-1.972C121.646,38.53,120.822,36.926,119.329,36.448z"/>
		<path fill="#231F20" d="M111.481,27.301c-1.565-0.069-2.892,1.145-2.967,2.711c-0.063,1.572,1.149,2.891,2.717,2.961
			c0.038,0,0.084,0,0.131,0c1.499,0,2.761-1.186,2.824-2.705C114.26,28.696,113.038,27.376,111.481,27.301z"/>
		<path fill="#231F20" d="M162.647,55.65c-1.565,0-2.836,1.271-2.836,2.839c0,1.567,1.271,2.836,2.836,2.836
			c1.574,0,2.845-1.27,2.845-2.836C165.492,56.922,164.222,55.65,162.647,55.65z"/>
		<path fill="#231F20" d="M161.931,52.713c0.16,0,0.318-0.019,0.475-0.047c1.539-0.258,2.587-1.724,2.327-3.271
			c-0.26-1.539-1.724-2.585-3.263-2.323c-1.549,0.257-2.594,1.72-2.333,3.269C159.366,51.727,160.572,52.713,161.931,52.713z"/>
		<path fill="#231F20" d="M114.641,9.745c0.055,0,0.112,0,0.176,0c1.484,0,2.735-1.159,2.818-2.66
			c0.101-1.565-1.084-2.913-2.649-3.006c-1.568-0.096-2.911,1.088-3.003,2.655C111.879,8.294,113.065,9.642,114.641,9.745z"/>
		<circle fill="#231F20" cx="131.583" cy="58.489" r="2.839"/>
		<path fill="#231F20" d="M130.952,52.667c1.428-0.64,2.074-2.317,1.436-3.749c-0.647-1.426-2.325-2.074-3.752-1.426
			c-1.427,0.638-2.076,2.32-1.437,3.744c0.475,1.055,1.511,1.686,2.596,1.686C130.184,52.921,130.57,52.84,130.952,52.667z"/>
		<path fill="#231F20" d="M126.615,41.022c-1.168-1.043-2.958-0.947-4.004,0.217c-1.047,1.167-0.945,2.964,0.221,4.013
			c0.538,0.479,1.214,0.72,1.892,0.72c0.777,0,1.547-0.319,2.113-0.94C127.884,43.864,127.782,42.07,126.615,41.022z"/>
		<path fill="#231F20" d="M139.348,55.65c-1.567,0-2.836,1.271-2.836,2.839c0,1.567,1.27,2.836,2.836,2.836
			c1.575,0,2.837-1.27,2.837-2.836C142.186,56.922,140.923,55.65,139.348,55.65z"/>
		<path fill="#231F20" d="M138.903,52.667c1.492-0.469,2.318-2.056,1.856-3.556c-0.474-1.497-2.068-2.329-3.562-1.856
			c-1.5,0.467-2.323,2.068-1.862,3.56l0,0c0.381,1.209,1.502,1.985,2.717,1.985C138.331,52.8,138.615,52.755,138.903,52.667z"/>
		<path fill="#231F20" d="M134.233,45.059c0.556,0,1.13-0.163,1.621-0.51c1.289-0.899,1.593-2.67,0.704-3.951
			c-0.899-1.284-2.678-1.599-3.957-0.696c-1.278,0.9-1.594,2.671-0.695,3.953C132.462,44.641,133.335,45.059,134.233,45.059z"/>
		<path fill="#231F20" d="M126.533,38.232c0.521,0.405,1.13,0.594,1.732,0.594c0.851,0,1.695-0.386,2.252-1.109
			c0.955-1.24,0.722-3.026-0.519-3.975c-1.243-0.959-3.022-0.728-3.977,0.515C125.057,35.495,125.297,37.277,126.533,38.232z"/>
		<path fill="#231F20" d="M121.378,28.864c-1.466-0.543-3.097,0.212-3.634,1.69c-0.536,1.468,0.214,3.093,1.698,3.637
			c0.313,0.114,0.649,0.169,0.972,0.169c1.157,0,2.244-0.714,2.659-1.861C123.611,31.028,122.861,29.398,121.378,28.864z"/>
		<path fill="#231F20" d="M147.123,55.65c-1.574,0-2.845,1.271-2.845,2.839c0,1.567,1.271,2.836,2.845,2.836
			c1.558,0,2.827-1.27,2.827-2.836C149.951,56.922,148.681,55.65,147.123,55.65z"/>
		<path fill="#231F20" d="M146.763,52.667c1.519-0.367,2.454-1.904,2.084-3.424c-0.37-1.523-1.901-2.461-3.429-2.092
			c-1.519,0.374-2.455,1.906-2.084,3.431c0.316,1.296,1.484,2.168,2.754,2.168C146.317,52.751,146.539,52.722,146.763,52.667z"/>
		<path fill="#231F20" d="M145.575,40.509c-0.73-1.391-2.447-1.931-3.836-1.203c-1.39,0.719-1.929,2.435-1.204,3.825
			c0.508,0.972,1.502,1.529,2.521,1.529c0.443,0,0.886-0.103,1.304-0.321C145.751,43.613,146.291,41.897,145.575,40.509z"/>
		<path fill="#231F20" d="M140.044,36.825c1.177-1.034,1.297-2.832,0.268-4.009c-1.027-1.177-2.826-1.293-4.003-0.265
			c-1.176,1.034-1.296,2.822-0.268,4.008c0.564,0.639,1.342,0.964,2.14,0.964C138.839,37.524,139.507,37.297,140.044,36.825z"/>
		<path fill="#231F20" d="M134.075,30.542c0.9-1.284,0.593-3.049-0.697-3.954c-1.278-0.903-3.049-0.592-3.946,0.689
			c-0.909,1.285-0.591,3.051,0.686,3.954c0.501,0.353,1.065,0.513,1.63,0.513C132.64,31.745,133.519,31.329,134.075,30.542z"/>
		<path fill="#231F20" d="M126.791,25.851c0.574-1.459-0.147-3.104-1.613-3.677c-1.455-0.565-3.102,0.148-3.68,1.607
			c-0.565,1.466,0.148,3.114,1.613,3.68c0.335,0.139,0.688,0.199,1.04,0.199C125.271,27.659,126.346,26.972,126.791,25.851z"/>
		<path fill="#231F20" d="M155.186,55.65c-1.575,0-2.845,1.271-2.845,2.839c0,1.567,1.27,2.836,2.845,2.836
			c1.566,0,2.833-1.27,2.833-2.836C158.019,56.922,156.753,55.65,155.186,55.65z"/>
		<path fill="#231F20" d="M154.342,52.722c0.176,0,0.373-0.019,0.556-0.055c1.537-0.301,2.531-1.795,2.225-3.336c0,0,0,0,0,0.005
			c-0.297-1.539-1.789-2.536-3.329-2.238c-1.538,0.305-2.541,1.797-2.231,3.336C151.824,51.787,153.018,52.722,154.342,52.722z"/>
		<path fill="#231F20" d="M152.935,44.227c1.444-0.602,2.13-2.255,1.528-3.706c0,0,0,0,0.01,0c-0.601-1.45-2.262-2.134-3.706-1.534
			c-1.457,0.594-2.144,2.258-1.551,3.705c0.455,1.097,1.513,1.755,2.634,1.755C152.203,44.447,152.571,44.375,152.935,44.227z"/>
		<path fill="#231F20" d="M146.197,31.62c-1.306,0.866-1.651,2.632-0.788,3.93c0.545,0.819,1.447,1.27,2.364,1.27
			c0.536,0,1.092-0.162,1.576-0.483c1.303-0.865,1.655-2.63,0.777-3.934l0,0C149.264,31.097,147.493,30.746,146.197,31.62z"/>
		<path fill="#231F20" d="M140.285,29.286c0.556,0.565,1.279,0.837,2.011,0.837c0.724,0,1.444-0.271,2-0.824
			c1.113-1.107,1.113-2.9,0-4.012c-1.093-1.112-2.902-1.112-4.004-0.009C139.18,26.38,139.171,28.183,140.285,29.286z"/>
		<path fill="#231F20" d="M133.268,20.199c-0.88,1.296-0.527,3.067,0.769,3.943c0.483,0.325,1.04,0.483,1.585,0.478
			c0.908,0,1.807-0.44,2.354-1.251c0.87-1.297,0.527-3.069-0.769-3.939C135.91,18.554,134.14,18.896,133.268,20.199z"/>
		<path fill="#231F20" d="M126.911,20.295c0.363,0.16,0.731,0.227,1.103,0.227c1.114,0,2.159-0.661,2.614-1.745
			c0.601-1.447-0.073-3.11-1.52-3.718c-1.444-0.603-3.113,0.079-3.715,1.528C124.789,18.035,125.475,19.694,126.911,20.295z"/>
		<path fill="#231F20" d="M119.183,17.929c0.194,0.042,0.378,0.06,0.564,0.06c1.326,0,2.5-0.937,2.78-2.275
			c0.305-1.542-0.685-3.034-2.222-3.351c-1.542-0.304-3.032,0.691-3.345,2.226C116.653,16.125,117.653,17.622,119.183,17.929z"/>
		<path fill="#231F20" d="M157.113,42.422c0.409,1.171,1.501,1.904,2.668,1.904c0.318,0,0.631-0.047,0.937-0.159
			c1.484-0.513,2.271-2.129,1.75-3.613c-0.519-1.477-2.13-2.261-3.613-1.743C157.372,39.322,156.594,40.943,157.113,42.422z"/>
		<path fill="#231F20" d="M153.777,34.956c0.519,0.937,1.493,1.468,2.493,1.468c0.464,0,0.938-0.115,1.363-0.349
			c1.379-0.761,1.872-2.484,1.122-3.861c-0.761-1.366-2.485-1.872-3.856-1.117C153.527,31.857,153.018,33.581,153.777,34.956z"/>
		<path fill="#231F20" d="M151.471,29.22c0.619,0,1.239-0.204,1.757-0.614c1.234-0.975,1.438-2.757,0.464-3.985
			c-0.973-1.229-2.761-1.432-3.984-0.458c-1.233,0.968-1.437,2.761-0.463,3.984C149.812,28.85,150.635,29.22,151.471,29.22z"/>
		<path fill="#231F20" d="M143.649,22.191c0.537,0.487,1.224,0.727,1.899,0.727c0.77,0,1.546-0.32,2.102-0.934
			c1.058-1.167,0.955-2.96-0.205-4.012c-1.165-1.049-2.956-0.956-4.012,0.207C142.389,19.345,142.479,21.138,143.649,22.191z"/>
		<path fill="#231F20" d="M137.143,17.237c0.463,0.302,0.99,0.445,1.51,0.445c0.936,0,1.863-0.462,2.4-1.316
			c0.844-1.321,0.453-3.072-0.871-3.919c-1.323-0.839-3.076-0.445-3.918,0.875C135.428,14.642,135.808,16.398,137.143,17.237z"/>
		<path fill="#231F20" d="M129.896,13.448c0.361,0.147,0.731,0.222,1.102,0.222c1.112,0,2.16-0.649,2.614-1.732
			c0.611-1.446-0.067-3.113-1.513-3.717c-1.444-0.61-3.112,0.069-3.715,1.509C127.773,11.176,128.45,12.846,129.896,13.448z"/>
		<path fill="#231F20" d="M122.128,10.927c0.212,0.049,0.437,0.075,0.649,0.075c1.289,0,2.456-0.881,2.753-2.192
			c0.36-1.526-0.584-3.057-2.114-3.41c-1.528-0.357-3.058,0.588-3.411,2.121C119.655,9.046,120.6,10.569,122.128,10.927z"/>
	</g>
</g>
</svg>
